<svg width="19" height="20" viewBox="0 0 19 20" fill="none" xmlns="http://www.w3.org/2000/svg">
<path d="M18.13 11.5783C18.7262 6.56022 17.8436 3.39218 16.2517 1.95928L16.2525 1.95845C13.6831 -0.488562 5.00575 -0.850743 1.93179 2.06835C0.551344 3.49626 0.0651064 5.59191 0.0118201 8.18629C-0.0414663 10.7815 -0.104744 15.643 4.42543 16.9619H4.42959L4.42543 18.9759C4.42543 18.9759 4.39462 19.7919 4.91583 19.9559C5.51197 20.1491 5.78173 19.7702 7.63593 17.5555C10.7365 17.8245 13.1178 17.2083 13.3884 17.1184C14.0145 16.9086 17.5572 16.4398 18.13 11.5783ZM7.94149 16.1384C7.94149 16.1384 5.97906 18.5854 5.36876 19.2207C5.16894 19.4272 4.94997 19.4081 4.9533 18.9984C4.9533 18.7295 4.96828 15.6547 4.96828 15.6547C1.1275 14.554 1.35397 10.4143 1.3956 8.24873C1.43723 6.08231 1.83355 4.30804 3.00252 3.11326C5.6993 0.584658 13.3068 1.14999 15.2451 2.97172C17.6146 5.07237 16.7712 11.0071 16.7762 11.2095C16.2891 15.2675 13.4183 15.5248 12.8905 15.7005C12.6648 15.7754 10.5708 16.3141 7.94149 16.1384Z" fill="#8E24AA"/>
<path d="M9.02752 3.58887C8.70697 3.58887 8.70697 4.08843 9.02752 4.09259C11.5145 4.11174 13.5627 5.84521 13.5852 9.02491C13.5852 9.36044 14.0764 9.35628 14.0722 9.02074H14.0714C14.0448 5.5946 11.8084 3.60802 9.02752 3.58887Z" fill="#8E24AA"/>
<path d="M12.2985 8.49786C12.291 8.82923 12.7814 8.84505 12.7856 8.50951C12.8264 6.62035 11.6616 5.06422 9.47268 4.9002C9.15213 4.87689 9.11882 5.38061 9.43854 5.40392C11.3369 5.54796 12.3368 6.84348 12.2985 8.49786Z" fill="#8E24AA"/>
<path d="M11.7734 10.6469C11.3621 10.4087 10.9433 10.5569 10.7701 10.7909L10.4079 11.2597C10.2239 11.4978 9.88006 11.4661 9.88006 11.4661C7.3706 10.8026 6.69953 8.17654 6.69953 8.17654C6.69953 8.17654 6.66872 7.82102 6.89852 7.63035L7.35145 7.25568C7.57792 7.07584 7.72113 6.64289 7.4905 6.21743C6.87437 5.10425 6.46057 4.72042 6.24993 4.42568C6.02845 4.14842 5.69541 4.08598 5.34905 4.27331H5.34156C4.62136 4.69461 3.83289 5.48308 4.08517 6.29486C4.51562 7.15077 5.30659 9.8792 7.8277 11.9407C9.01249 12.9157 10.8875 13.9148 11.6835 14.1454L11.691 14.1571C12.4753 14.4185 13.2379 13.5993 13.6451 12.8574V12.8516C13.8257 12.4927 13.7658 12.153 13.5019 11.9307C13.0339 11.4745 12.3279 10.9707 11.7734 10.6469Z" fill="#8E24AA"/>
<path d="M9.81474 6.75816C10.6149 6.80479 11.0029 7.22275 11.0445 8.08116C11.0595 8.4167 11.5465 8.39339 11.5316 8.05785C11.4783 6.93717 10.8938 6.31272 9.84139 6.25444C9.52084 6.23529 9.49086 6.73901 9.81474 6.75816Z" fill="#8E24AA"/>
</svg>
